<svg xmlns="http://www.w3.org/2000/svg" xmlns:xlink="http://www.w3.org/1999/xlink" width="338" height="325" viewBox="0 0 338 325">
  <defs>
    <linearGradient id="linear-gradient" x1="0.5" x2="0.5" y2="1" gradientUnits="objectBoundingBox">
      <stop offset="0" stop-color="#32d1db"/>
      <stop offset="1" stop-color="#e958f0"/>
    </linearGradient>
  </defs>
  <g id="graphic" transform="translate(-243 -1397)">
    <rect id="Rectangle_5" data-name="Rectangle 5" width="338" height="325" rx="67" transform="translate(243 1397)" fill="#101010"/>
    <g id="Group_200" data-name="Group 200" transform="translate(12 57)">
      <g id="graphic-design-svgrepo-com" transform="translate(350 1402.535)">
        <g id="Group_159" data-name="Group 159" transform="translate(0 2.465)">
          <g id="Group_158" data-name="Group 158">
            <path id="Path_8" data-name="Path 8" d="M93.295,42.6,90.261,30.865a1.724,1.724,0,0,0-2.7-.948l-9.707,7.262a1.723,1.723,0,0,0-.594.809L72.695,50.982a25.481,25.481,0,0,0-3.908-2.962l1.674-14.413c4.247-5.685,5.979-11.392,5.144-16.972C74.317,8.03,67.375,3,67.08,2.785A1.724,1.724,0,0,0,64.469,4.8l.808,2.125a7.832,7.832,0,0,1-3.12,9.367,11.2,11.2,0,0,0-3.991,14.645l.861,1.678-.68,11.814a25.3,25.3,0,0,0-8.616.523l-.306-1.377a3.938,3.938,0,0,0-1.5-7.182l-.412-1.855a3.734,3.734,0,0,1,.107-2.154,7.551,7.551,0,0,0-1.313-7.44L37.019,14.325a1.724,1.724,0,0,0-2.954.657L30.154,28.536a7.551,7.551,0,0,0,1.962,7.3,3.735,3.735,0,0,1,1.01,1.906l.412,1.855a3.941,3.941,0,0,0,1.681,7.147l1.356,6.1a25.376,25.376,0,0,0-3.1,4.363c-.468-.079-.939-.139-1.411-.183l-7.7-11.9a1.724,1.724,0,0,0-2.384-.511L3.454,56.6a1.724,1.724,0,0,0-.511,2.384l6.86,10.6A12.849,12.849,0,0,0,12.85,94.916H78.315a12.844,12.844,0,0,0,5.5-24.451L93.252,43.6A1.723,1.723,0,0,0,93.295,42.6Zm-5.728-8.385.454,1.758a4.713,4.713,0,0,1-1.909-.67Zm-7.862,7.207a18.777,18.777,0,0,0,2.92,1.665L77.651,57.254a25.414,25.414,0,0,0-2.3-3.424ZM64,19.206a11.293,11.293,0,0,0,5.223-9.243A16.91,16.91,0,0,1,72.2,17.145c.675,4.51-.74,9.215-4.2,14l-6.12-.531-.641-1.248A7.766,7.766,0,0,1,64,19.206ZM62.249,36.633l.145-2.514,4.492.39-.291,2.5Zm3.948,3.8-.684,5.885a25.1,25.1,0,0,0-3.749-1.272l.286-4.972ZM34.455,33.3a4.109,4.109,0,0,1-.989-3.808L35.5,22.428l1.222,5.5a1.724,1.724,0,1,0,3.365-.748l-1.222-5.5,4.838,5.535a4.109,4.109,0,0,1,.717,3.869,7.143,7.143,0,0,0-.281,4.2l.35,1.575-7.653,1.7-.35-1.575A7.143,7.143,0,0,0,34.455,33.3Zm1.752,9.944-.017,0-.314.07a.491.491,0,0,1-.213-.959l.242-.054h0l11.26-2.5a.5.5,0,0,1,.11-.012.491.491,0,0,1,.1.971Zm10.218,2.734a25.169,25.169,0,0,0-6.944,4.054l-.844-3.8,7.476-1.662ZM6.773,58.556,22.4,48.439l5.584,8.63a18.784,18.784,0,0,0-9.143,3.7,19.184,19.184,0,0,0-5.871,7.368Zm80.945,23.51a9.413,9.413,0,0,1-9.4,9.4H12.85a9.4,9.4,0,1,1,0-18.8c.228,0,.476.011.759.034A1.721,1.721,0,0,0,15.4,71.472,15.545,15.545,0,0,1,33.983,60.825a1.724,1.724,0,0,0,1.953-.91A21.873,21.873,0,0,1,77.422,69.6c0,.387-.013.805-.04,1.276a1.724,1.724,0,0,0,1.6,1.818A9.425,9.425,0,0,1,87.718,82.066ZM80.846,68.53a25.2,25.2,0,0,0-1.173-6.63l6.2-17.671a18.754,18.754,0,0,0,3.317.523ZM81.7,38.607l1.541-1.152a8.166,8.166,0,0,0,5.35,2c.11,0,.22-.006.331-.011l.482,1.864A15.36,15.36,0,0,1,81.7,38.607Z" transform="translate(0 -2.465)" fill="url(#linear-gradient)"/>
          </g>
        </g>
        <g id="Group_161" data-name="Group 161" transform="translate(27.126 65.303)">
          <g id="Group_160" data-name="Group 160">
            <path id="Path_9" data-name="Path 9" d="M175.178,353.272h-.014a14.517,14.517,0,0,0-26.385,8.36,1.724,1.724,0,1,0,3.447,0,11.07,11.07,0,0,1,20.557-5.7,1.723,1.723,0,0,0,1.637.826c.261-.024.516-.037.758-.037a8,8,0,0,1,7.991,7.991,1.724,1.724,0,0,0,3.447,0A11.451,11.451,0,0,0,175.178,353.272Z" transform="translate(-148.779 -347.116)" fill="url(#linear-gradient)"/>
          </g>
        </g>
      </g>
      <text id="GRAPHIC_DESIGN" data-name="GRAPHIC 
DESIGN" transform="translate(397 1554)" fill="#fff" font-size="25" font-family="Poppins-Bold, Poppins" font-weight="700" letter-spacing="0.013em"><tspan x="-60.825" y="0">GRAPHIC </tspan><tspan x="-46.963" y="36">DESIGN</tspan></text>
    </g>
  </g>
</svg>
