<svg xmlns="http://www.w3.org/2000/svg" xmlns:xlink="http://www.w3.org/1999/xlink" width="338" height="325" viewBox="0 0 338 325">
  <defs>
    <linearGradient id="linear-gradient" x1="0.5" x2="0.5" y2="1" gradientUnits="objectBoundingBox">
      <stop offset="0" stop-color="#e05aef"/>
      <stop offset="1" stop-color="#51b9dd"/>
    </linearGradient>
  </defs>
  <g id="uiux" transform="translate(-833 -1397)">
    <rect id="Rectangle_7" data-name="Rectangle 7" width="338" height="325" rx="67" transform="translate(833 1397)" fill="#101010"/>
    <g id="Group_199" data-name="Group 199" transform="translate(12 58)">
      <text id="UI_UX_DESIGN" data-name="UI/ UX
DESIGN" transform="translate(987 1554)" fill="#fff" font-size="25" font-family="Poppins-Bold, Poppins" font-weight="700" letter-spacing="0.013em"><tspan x="-39.375" y="0">UI/ UX</tspan><tspan x="-46.963" y="36">DESIGN</tspan></text>
      <g id="website-ui-ux" transform="translate(924 1403)">
        <path id="Path_13" data-name="Path 13" d="M8.546,0H117.666a8.565,8.565,0,0,1,8.546,8.546V89.554a8.572,8.572,0,0,1-8.546,8.546H8.546A8.565,8.565,0,0,1,0,89.554V8.546A8.565,8.565,0,0,1,8.546,0Zm4.4,27.681h99.394V69.875H12.942V27.681ZM33.083,39.719h6.142V52.5a11.39,11.39,0,0,1-.555,3.585,7.915,7.915,0,0,1-1.726,2.958,6.81,6.81,0,0,1-2.465,1.777,11.681,11.681,0,0,1-4.3.719A25.734,25.734,0,0,1,27,61.319a7.713,7.713,0,0,1-2.876-.873A7.21,7.21,0,0,1,22.021,58.6a6.991,6.991,0,0,1-1.315-2.475,13.721,13.721,0,0,1-.575-3.626V39.719h6.142V52.8a3.848,3.848,0,0,0,.9,2.732,3.235,3.235,0,0,0,2.506.986,3.249,3.249,0,0,0,2.486-.976,3.915,3.915,0,0,0,.9-2.753V39.719Zm10.456,0h6.173V61.175H43.539V39.719ZM57.1,39.359h2.794L54.869,61.535H52.075L57.1,39.359Zm17.7.359h6.142V52.5a11.39,11.39,0,0,1-.555,3.585,7.915,7.915,0,0,1-1.726,2.958,6.81,6.81,0,0,1-2.465,1.777,11.681,11.681,0,0,1-4.3.719,25.734,25.734,0,0,1-3.174-.216,7.713,7.713,0,0,1-2.876-.873A7.21,7.21,0,0,1,63.733,58.6a6.991,6.991,0,0,1-1.315-2.475,13.668,13.668,0,0,1-.565-3.626V39.719H68V52.8a3.848,3.848,0,0,0,.9,2.732,3.666,3.666,0,0,0,4.992.01,3.915,3.915,0,0,0,.9-2.753V39.719Zm8.843,0h6.789l3.523,6.6,3.42-6.6h6.7L97.884,50.113l6.769,11.062H97.73l-3.9-6.892-3.934,6.892H83.022L89.883,49.99,83.638,39.719ZM68.683,85.949a3.607,3.607,0,0,1,0-7.19h40.725a3.607,3.607,0,0,1,0,7.19Zm-53.318,0a3.61,3.61,0,0,1,0-7.19H53.122a3.61,3.61,0,0,1,0,7.19Zm105.8-65.3H5.433V90.386A2.35,2.35,0,0,0,7.8,92.749h110.97a2.36,2.36,0,0,0,1.674-.688,2.318,2.318,0,0,0,.688-1.674V20.645ZM109.532,6.327a4.221,4.221,0,1,1-4.221,4.221,4.221,4.221,0,0,1,4.221-4.221Zm-28.595,0a4.221,4.221,0,1,1-4.221,4.221,4.221,4.221,0,0,1,4.221-4.221Zm14.3,0a4.221,4.221,0,1,1-4.221,4.221,4.221,4.221,0,0,1,4.221-4.221Z" fill-rule="evenodd" fill="url(#linear-gradient)"/>
      </g>
    </g>
  </g>
</svg>
